# xmcd
#
# Track frame offsets:
#	150
#	13662
#	23692
#	37270
#	59862
#	75540
#	91462
#	102790
#	121704
#	131480
#	143792
#	157532
#	172527
#	184692
#	196582
#
# Disc length: 2802 seconds
#
# Revision: 0
# Processed by: cddbd v1.4PL0 Copyright (c) Steve Scherf et al.
# Submitted via: MusicWizard 6.0.1
#
DISCID=af0af00f
DTITLE=Various Artist - Blues
DYEAR=1998
DGENRE=Blues
TTITLE0=Howlin Wolf - Highway 49
TTITLE1=John Lee Hooker - Dimples
TTITLE2=Robert Johnson - Terraplane Blues
TTITLE3=Sonny Terry - Drinkin In The Blues
TTITLE4=Fred Mc Dowell - Good Morning Little Schol Girl
TTITLE5=Lightnin Hopkins - Get Down Old Hanna
TTITLE6=Muddy Waters - Goin Home
TTITLE7=Etta James - Baby What You Want Me To Do
TTITLE8=Leadbelly - How Long
TTITLE9=Missisppi John Hurt - Spiker Driver Blues
TTITLE10=Rosewelt Sykes - No Good Woman Blues
TTITLE11=Sonny Boy Williamson - Baby Please Dont Go
TTITLE12=Big Bill Broonzy - Missisippi River Blues
TTITLE13=Bukka White - Parchman Farm Blues
TTITLE14=Bessie Smith - A Good Man Its Hard
EXTD=
EXTT0=
EXTT1=
EXTT2=
EXTT3=
EXTT4=
EXTT5=
EXTT6=
EXTT7=
EXTT8=
EXTT9=
EXTT10=
EXTT11=
EXTT12=
EXTT13=
EXTT14=
PLAYORDER=
